<?xml version="1.0" encoding="UTF-8" standalone="no"?> <svg width="64" height="64" viewBox="0 0 64 64" fill="none" xmlns="http://www.w3.org/2000/svg">
<path d="M60 21.06C60.2652 21.06 60.5196 20.9546 60.7071 20.7671C60.8946 20.5796 61 20.3252 61 20.06V13.54C61 13.2748 60.8946 13.0204 60.7071 12.8329C60.5196 12.6454 60.2652 12.54 60 12.54H56.74C56.62 6.16 57.82 7.38 51.46 7.26V4C51.46 3.73478 51.3546 3.48043 51.1671 3.29289C50.9796 3.10536 50.7252 3 50.46 3H43.94C43.6748 3 43.4204 3.10536 43.2329 3.29289C43.0454 3.48043 42.94 3.73478 42.94 4V7.26H21.06V4C21.06 3.73478 20.9546 3.48043 20.7671 3.29289C20.5796 3.10536 20.3252 3 20.06 3H13.54C13.2748 3 13.0204 3.10536 12.8329 3.29289C12.6454 3.48043 12.54 3.73478 12.54 4V7.26C6.16 7.38 7.38 6.18 7.26 12.54H4C3.73478 12.54 3.48043 12.6454 3.29289 12.8329C3.10536 13.0204 3 13.2748 3 13.54V20.06C3 20.3252 3.10536 20.5796 3.29289 20.7671C3.48043 20.9546 3.73478 21.06 4 21.06H7.26V42.94H4C3.73478 42.94 3.48043 43.0454 3.29289 43.2329C3.10536 43.4204 3 43.6748 3 43.94V50.46C3 50.7252 3.10536 50.9796 3.29289 51.1671C3.48043 51.3546 3.73478 51.46 4 51.46H7.26C7.38 57.84 6.18 56.62 12.54 56.74V60C12.54 60.2652 12.6454 60.5196 12.8329 60.7071C13.0204 60.8946 13.2748 61 13.54 61H20.06C20.3252 61 20.5796 60.8946 20.7671 60.7071C20.9546 60.5196 21.06 60.2652 21.06 60V56.74H42.94V60C42.94 60.2652 43.0454 60.5196 43.2329 60.7071C43.4204 60.8946 43.6748 61 43.94 61H50.46C50.7252 61 50.9796 60.8946 51.1671 60.7071C51.3546 60.5196 51.46 60.2652 51.46 60V56.74C57.84 56.62 56.62 57.82 56.74 51.46H60C60.2652 51.46 60.5196 51.3546 60.7071 51.1671C60.8946 50.9796 61 50.7252 61 50.46V43.94C61 43.6748 60.8946 43.4204 60.7071 43.2329C60.5196 43.0454 60.2652 42.94 60 42.94H56.74V21.06H60ZM59 14.54V19.06H56.74V14.54H59ZM43.94 54.74H42.49V47.74C43.4736 47.0832 44.3942 46.3367 45.24 45.51V54.71L43.94 54.74ZM20.06 54.74H18.76V45.54C19.365 46.1233 20.0062 46.6677 20.68 47.17C20.7808 47.2874 20.9074 47.3798 21.05 47.44C21.2 47.55 21.35 47.67 21.51 47.77V54.77L20.06 54.74ZM14.06 54.74V37.94C14.6935 39.8336 15.6216 41.6154 16.81 43.22V54.74H14.06ZM20.06 9.26H21.51V16.26C20.5264 16.9168 19.6058 17.6633 18.76 18.49V9.26H20.06ZM43.94 9.26H45.24V18.46C44.6384 17.88 44.0004 17.3389 43.33 16.84C43.2227 16.7027 43.0813 16.5958 42.92 16.53C42.77 16.43 42.64 16.32 42.49 16.23V9.23L43.94 9.26ZM49.99 9.26V26.06C49.3565 24.1664 48.4284 22.3846 47.24 20.78V9.26H49.99ZM49 32C49.0032 34.6903 48.3583 37.3417 47.12 39.73C46.4636 37.3704 45.0899 35.2732 43.189 33.7288C41.2881 32.1845 38.954 31.2693 36.51 31.11C36.4227 30.5922 36.2432 30.0944 35.98 29.64C37.7729 28.1058 40.0583 27.2685 42.418 27.2814C44.7777 27.2942 47.0539 28.1564 48.83 29.71C48.9374 30.4687 48.9942 31.2337 49 32V32ZM37.18 48.14C38.4011 45.9831 38.9132 43.497 38.644 41.0331C38.3749 38.5692 37.338 36.2523 35.68 34.41C35.9622 34.0105 36.1783 33.5682 36.32 33.1C38.6947 33.2541 40.9328 34.2643 42.6192 35.9433C44.3055 37.6223 45.3255 39.856 45.49 42.23C43.3864 45.0002 40.4872 47.0621 37.18 48.14V48.14ZM32 49C29.3067 49.0017 26.6524 48.3569 24.26 47.12C26.6745 46.4524 28.8137 45.033 30.3672 43.0677C31.9207 41.1025 32.8079 38.6934 32.9 36.19C33.347 36.1067 33.7765 35.9477 34.17 35.72C35.7857 37.5046 36.6904 39.82 36.7125 42.2272C36.7346 44.6344 35.8726 46.966 34.29 48.78C33.5325 48.9046 32.7674 48.9781 32 49V49ZM15.86 37.18C18.0368 38.4213 20.5529 38.9355 23.0422 38.6477C25.5314 38.3599 27.8639 37.2852 29.7 35.58C30.0736 35.8156 30.4819 35.9911 30.91 36.1C30.8054 38.5144 29.816 40.806 28.1304 42.5377C26.4447 44.2695 24.1807 45.3203 21.77 45.49C18.9998 43.3864 16.9379 40.4872 15.86 37.18V37.18ZM15.05 32C15.0468 29.3097 15.6917 26.6583 16.93 24.27C17.5963 26.6639 19.0007 28.7866 20.9434 30.336C22.886 31.8855 25.2679 32.7827 27.75 32.9C27.8656 33.3448 28.0477 33.7695 28.29 34.16C26.5071 35.7819 24.1899 36.6914 21.7798 36.7154C19.3696 36.7393 17.0349 35.8761 15.22 34.29C15.1126 33.5313 15.0558 32.7663 15.05 32V32ZM26.82 15.86C25.6042 18.0023 25.0894 20.4714 25.3476 22.9211C25.6058 25.3708 26.6242 27.6783 28.26 29.52C28.0006 29.947 27.8115 30.413 27.7 30.9C25.3218 30.7506 23.0788 29.7424 21.3883 28.0629C19.6979 26.3835 18.675 24.1472 18.51 21.77C20.6136 18.9998 23.5128 16.9379 26.82 15.86V15.86ZM32 15.05C34.6933 15.0483 37.3476 15.6931 39.74 16.93C37.3926 17.5817 35.3041 18.9435 33.7609 20.8287C32.2177 22.7138 31.2953 25.0301 31.12 27.46C30.5999 27.5767 30.1052 27.7868 29.66 28.08C28.1198 26.2885 27.2778 24.0013 27.2888 21.6388C27.2998 19.2763 28.1631 16.997 29.72 15.22C30.4754 15.1126 31.2371 15.0558 32 15.05V15.05ZM48.14 26.82C46.0214 25.6184 43.5832 25.1013 41.1592 25.3394C38.7353 25.5775 36.4443 26.5592 34.6 28.15C34.1493 27.8381 33.6438 27.6142 33.11 27.49C33.3049 25.1479 34.3316 22.953 36.0044 21.3022C37.6772 19.6514 39.8856 18.6539 42.23 18.49C45.0035 20.5989 47.0657 23.5055 48.14 26.82V26.82ZM32.07 34.28C31.4176 34.28 30.7919 34.0208 30.3305 33.5595C29.8692 33.0981 29.61 32.4724 29.61 31.82C29.61 31.1676 29.8692 30.5419 30.3305 30.0805C30.7919 29.6192 31.4176 29.36 32.07 29.36C32.7224 29.36 33.3481 29.6192 33.8095 30.0805C34.2708 30.5419 34.53 31.1676 34.53 31.82C34.53 32.4724 34.2708 33.0981 33.8095 33.5595C33.3481 34.0208 32.7224 34.28 32.07 34.28ZM40.49 15.08C39.6062 14.6327 38.6903 14.2516 37.75 13.94V9.26H40.49V15.08ZM35.75 13.42C34.8423 13.2471 33.9232 13.1401 33 13.1V9.26H35.75V13.42ZM31 13.1C30.41 13.1 29.82 13.19 29.25 13.27C29.1349 13.2712 29.0205 13.288 28.91 13.32L28.25 13.42V9.26H31V13.1ZM26.25 13.94C25.3097 14.2516 24.3938 14.6327 23.51 15.08V9.26H26.25V13.94ZM16.76 20.74C16.6819 20.8204 16.6207 20.9156 16.58 21.02C15.4824 22.5514 14.6164 24.2362 14.01 26.02V9.26H16.76V20.74ZM23.51 48.92C24.3938 49.3673 25.3097 49.7484 26.25 50.06V54.74H23.51V48.92ZM28.25 50.58C29.1577 50.7529 30.0768 50.8599 31 50.9V54.74H28.25V50.58ZM33 50.9C33.5826 50.8741 34.1634 50.8173 34.74 50.73C34.8665 50.7445 34.9946 50.7238 35.11 50.67C35.32 50.67 35.54 50.62 35.75 50.58V54.74H33V50.9ZM37.75 50.06C38.6903 49.7484 39.6062 49.3673 40.49 48.92V54.74H37.75V50.06ZM47.24 43.26C47.3181 43.1796 47.3793 43.0844 47.42 42.98C48.5176 41.4486 49.3836 39.7638 49.99 37.98V54.78H47.24V43.26ZM44.94 5H49.46V7.26H44.94V5ZM14.54 5H19.06V7.26H14.54V5ZM5 19.06V14.54H7.26V19.06H5ZM5 49.46V44.94H7.26V49.46H5ZM9.26 50.46V9.26H12V54.74H9.26V50.46ZM19.06 59H14.54V56.74H19.06V59ZM49.46 59H44.94V56.74H49.46V59ZM54.74 54.74H52V9.26H54.75L54.74 54.74ZM59 44.94V49.46H56.74V44.94H59Z" fill="black"/>
</svg>
