<?xml version="1.0" encoding="utf-8"?>
<!-- Generator: Adobe Illustrator 23.0.2, SVG Export Plug-In . SVG Version: 6.00 Build 0)  -->
<svg version="1.1" id="Layer_1" xmlns="http://www.w3.org/2000/svg" xmlns:xlink="http://www.w3.org/1999/xlink" x="0px" y="0px"
	 viewBox="0 0 262.2861 247.0561" enable-background="new 0 0 262.2861 247.0561" xml:space="preserve">
<g>
	<polygon points="230.4111,242.644 214.8525,234.1987 199.2978,242.6459 183.7402,234.1987 168.1845,242.6459 152.6269,234.1987 
		136.3095,243.0581 137.833,245.4389 152.6269,237.4057 168.1845,245.853 183.7402,237.4057 199.2978,245.853 214.8525,237.4057 
		230.4111,245.851 245.9687,237.4057 260.7636,245.4389 262.2861,243.0581 245.9658,234.1987 	"/>
	<polygon points="245.9658,225.8754 230.4111,234.3198 214.8525,225.8754 199.2978,234.3198 183.7402,225.8754 168.1845,234.3198 
		152.6269,225.8754 136.3095,234.7358 137.833,237.1166 152.6269,229.0834 168.1845,237.5288 183.7402,229.0834 199.2978,237.5288 
		214.8525,229.0834 230.4111,237.5288 245.9687,229.0834 260.7636,237.1166 262.2861,234.7358 	"/>
	<polygon points="245.9658,217.5502 230.4111,225.9975 214.8525,217.5502 199.2978,225.9975 183.7402,217.5522 168.1845,225.9975 
		152.6269,217.5502 136.3095,226.4125 137.833,228.7944 152.6269,220.7583 168.1845,229.2065 183.7402,220.7583 199.2978,229.2065 
		214.8525,220.7583 230.4111,229.2065 245.9687,220.7583 260.7636,228.7944 262.2861,226.4125 	"/>
	<polygon points="245.9658,209.228 230.4111,217.6733 214.8525,209.228 199.2978,217.6752 183.7402,209.228 168.1845,217.6752 
		152.6269,209.228 136.3095,218.0874 137.833,220.4682 152.6269,212.436 168.1845,220.8833 183.7402,212.436 199.2978,220.8833 
		214.8525,212.436 230.4111,220.8833 245.9687,212.436 260.7636,220.4682 262.2861,218.0874 	"/>
	<polygon points="245.9658,200.9057 230.4111,209.35 214.8525,200.9057 199.2978,209.35 183.7402,200.9057 168.1845,209.35 
		152.6269,200.9057 136.3095,209.7651 137.833,212.1459 152.6269,204.1127 168.1845,212.5581 183.7402,204.1127 199.2978,212.5581 
		214.8525,204.1127 230.4111,212.5581 245.9687,204.1127 260.7636,212.1459 262.2861,209.7651 	"/>
	<polygon points="245.9658,192.5825 230.4111,201.0268 214.8525,192.5825 199.2978,201.0268 183.7402,192.5825 168.1845,201.0268 
		152.6269,192.5825 136.3095,201.4418 137.833,203.8237 152.6269,195.7905 168.1845,204.2358 183.7402,195.7905 199.2978,204.2358 
		214.8525,195.7905 230.4111,204.2358 245.9687,195.7905 260.7636,203.8237 262.2861,201.4418 	"/>
	<polygon points="245.9658,184.2573 230.4111,192.7045 214.8525,184.2573 199.2978,192.7026 183.7402,184.2592 168.1845,192.7045 
		152.6269,184.2573 136.3095,193.1166 137.833,195.4975 152.6269,187.4653 168.1845,195.9125 183.7402,187.4653 199.2978,195.9125 
		214.8525,187.4653 230.4111,195.9125 245.9687,187.4653 260.7636,195.4975 262.2861,193.1166 	"/>
	<polygon points="245.9658,175.935 230.4111,184.3793 214.8525,175.935 199.2978,184.3793 183.7402,175.935 168.1845,184.3793 
		152.6269,175.935 136.3095,184.7944 137.833,187.1752 152.6269,179.142 168.1845,187.5893 183.7402,179.142 199.2978,187.5874 
		214.8525,179.142 230.4111,187.5874 245.9687,179.142 260.7636,187.1752 262.2861,184.7944 	"/>
	<polygon points="245.9658,167.6108 230.4111,176.0571 214.8525,167.6108 199.2978,176.0571 183.7402,167.6108 168.1845,176.0571 
		152.6269,167.6108 136.3095,176.4711 137.833,178.853 152.6269,170.8198 168.1845,179.2651 183.7402,170.8198 199.2978,179.2651 
		214.8525,170.8198 230.4111,179.2651 245.9687,170.8198 260.7636,178.853 262.2861,176.4711 	"/>
	<polygon points="245.9658,159.2866 230.4111,167.7338 214.8525,159.2866 199.2978,167.7338 183.7402,159.2866 168.1845,167.7338 
		152.6269,159.2866 136.3095,168.1459 137.833,170.5288 152.6269,162.4956 168.1845,170.9418 183.7402,162.4956 199.2978,170.9418 
		214.8525,162.4956 230.4111,170.9418 245.9687,162.4956 260.7636,170.5288 262.2861,168.1479 	"/>
	<polygon points="245.9658,150.9643 230.4111,159.4116 214.8525,150.9643 199.2978,159.4116 183.7402,150.9643 168.1845,159.4116 
		152.6269,150.9643 136.3095,159.8237 137.833,162.2045 152.6269,154.1723 168.1845,162.6186 183.7402,154.1723 199.2978,162.6186 
		214.8525,154.1723 230.4111,162.6186 245.9687,154.1723 260.7636,162.2045 262.2861,159.8237 	"/>
	<path d="M53.5625,234.6928c0,6.8301,5.5371,12.3633,12.3632,12.3633c6.8282,0,12.3653-5.5332,12.3653-12.3633v-44.8681
		l4.6347-4.6348v49.5029c0,6.8301,5.5371,12.3633,12.3633,12.3633c6.8281,0,12.3653-5.5332,12.3653-12.3633v-74.2314l7.7314-7.7315
		c1.3447,2.0157,3.5791,3.4034,6.1855,3.5557c0.1582,0.0088,0.3164,0.0137,0.4737,0.0137c4.2041,0,7.7314-3.2832,7.9795-7.5342
		c0.2265-3.8975,0.3769-7.5967,0.4716-11.1455l15.876-15.876l-17.166-17.1665c-1.8965-15.144-5.5547-25.0654-10.0273-31.8989
		c-3.2832-4.9854-7.126-8.1831-10.6778-9.9532c-1.9463-0.9819-3.7519-1.5229-5.2871-1.8183
		c0.4024,3.9814,1.3184,12.186,2.7451,20.4233L89.8085,65.1791l1.6465-4.6079H69.7617l5.373,15.0303L51.2734,99.4624l-2.7666,2.7666
		c1.3281-8.1309,3.2051-13.7159,5.0557-17.5059v5.1167c2.4169-10.4556,3.8974-23.5664,4.4414-28.9429
		c-3.3731,0.6719-8.0899,2.5845-12.3711,7.2031c-5.9082,6.3155-10.8789,16.7842-13.375,34.566c0,0.0014-0.001,0.0024-0.001,0.0039
		c-0.7139,5.102-1.2168,10.8413-1.4707,17.2798L0,150.7358l53.5625,53.5615V234.6928z M4.2421,150.7338l26.4131-26.413
		c-0.0351,1.7187-0.0595,3.4677-0.0595,5.2832c0,0.9794,0.0136,1.9951,0.0234,3.0048l-19.1865,19.1866l1.8847,1.8857
		l17.3653-17.3652c0.0908,3.9414,0.2509,8.0713,0.5107,12.4541c0.0879,1.5019,0.5918,2.8779,1.3838,4.0361l-10.0674,10.0674
		l1.8858,1.8857l10.0322-10.0322c1.3349,0.9873,2.9785,1.5723,4.7461,1.5723c0.1582,0,0.3174-0.0049,0.4775-0.0147
		c4.4102-0.2597,7.7754-4.0469,7.5137-8.458c-0.1123-1.9043-0.2022-3.748-0.2803-5.5566l54.8213-54.8213l-1.8857-1.8853
		L46.747,138.6362c-0.0996-3.1592-0.1494-6.1729-0.1494-9.0322c0-3.3331,0.0703-6.4502,0.1914-9.3946L90.6279,76.371l-1.8858-1.8857
		l-41.7529,41.7524c0.2041-3.2763,0.4815-6.2929,0.8184-9.0693l39.873-39.8721l54.4483,54.4483l-83.4375,83.4375L4.2421,150.7338z"
		/>
	<path d="M58.1084,32.164c0,12.4258,10.0742,22.5,22.5,22.5c12.4257,0,22.5-10.0742,22.5-22.5c0-0.3266-0.0108-0.6509-0.0245-0.9746
		H58.1328C58.1191,31.5131,58.1084,31.8374,58.1084,32.164z"/>
	<path d="M57.0751,22.4033c-1.666,0-3.0156,1.3525-3.0156,3.0185c0,1.668,1.3496,3.0176,3.0156,3.0176h0.4024h46.2617h0.4004
		c1.668,0,3.0176-1.3496,3.0176-3.0176c0-1.666-1.3496-3.0185-3.0176-3.0185h-0.416c-0.0108-0.4195-0.0322-0.8365-0.0654-1.25
		c-0.5684-7.167-4.4004-13.4146-10.0147-17.2525V5.748c0,1.3184-1.0684,2.3887-2.3867,2.3887c-1.3184,0-2.3887-1.0703-2.3887-2.3887
		V1.4023c-1.8555-0.71-3.8232-1.1919-5.873-1.4023v5.748c0,1.3184-1.0684,2.3887-2.3867,2.3887
		c-1.3204,0-2.3887-1.0703-2.3887-2.3887V0.0004c-2.0498,0.21-4.0176,0.6929-5.8731,1.4029V5.748
		c0,1.3184-1.0683,2.3887-2.3886,2.3887c-1.3184,0-2.3868-1.0703-2.3868-2.3887V3.9023
		c-5.6132,3.8379-9.4443,10.0845-10.0127,17.251c-0.0332,0.4135-0.0546,0.8305-0.0654,1.25H57.0751z"/>
	
		<rect x="18.5192" y="134.9058" transform="matrix(0.7072 -0.707 0.707 0.7072 -74.8942 91.6342)" width="109.3334" height="2.667"/>
	
		<rect x="29.5976" y="145.9839" transform="matrix(0.7069 -0.7073 0.7073 0.7069 -79.5017 102.7798)" width="109.3329" height="2.6668"/>
	
		<rect x="40.6753" y="157.0621" transform="matrix(0.7071 -0.7071 0.7071 0.7071 -84.0764 113.805)" width="109.333" height="2.6668"/>
</g>
</svg>
