<?xml version="1.0" encoding="UTF-8" standalone="no"?> <svg width="64" height="64" viewBox="0 0 64 64" fill="none" xmlns="http://www.w3.org/2000/svg">
<path d="M40 11H24V13H40V11Z" fill="black"/>
<path d="M45.82 29H18.18C17.5008 28.9982 16.8414 29.2282 16.3105 29.6518C15.7796 30.0754 15.409 30.6674 15.26 31.33L10.26 53H53.74L48.74 31.33C48.591 30.6674 48.2204 30.0754 47.6895 29.6518C47.1587 29.2282 46.4992 28.9982 45.82 29V29ZM42.62 42H45.59C45.7565 42.0001 45.9203 42.0417 46.0666 42.1211C46.213 42.2005 46.3372 42.3152 46.4279 42.4547C46.5187 42.5943 46.5732 42.7543 46.5865 42.9202C46.5998 43.0862 46.5714 43.2528 46.504 43.405C46.0328 44.4725 45.262 45.3804 44.285 46.0185C43.308 46.6567 42.1669 46.9976 41 47C40.1592 47.0009 39.3278 46.8231 38.561 46.4783C37.7941 46.1335 37.1093 45.6296 36.552 45H27.452C26.8942 45.6301 26.2088 46.1343 25.4412 46.4791C24.6736 46.8239 23.8415 47.0015 23 47C21.8338 46.9968 20.6935 46.6555 19.7173 46.0174C18.7412 45.3794 17.9709 44.4719 17.5 43.405C17.4327 43.2531 17.4043 43.0868 17.4174 42.9212C17.4305 42.7556 17.4847 42.5958 17.575 42.4564C17.6653 42.3169 17.7889 42.2022 17.9347 42.1225C18.0805 42.0428 18.2439 42.0007 18.41 42H21.382L21.882 41L21.382 40H18.41C18.2445 39.9989 18.0819 39.9568 17.9367 39.8774C17.7915 39.798 17.6683 39.6838 17.5781 39.545C17.4879 39.4063 17.4335 39.2473 17.4199 39.0824C17.4063 38.9174 17.4338 38.7517 17.5 38.6C17.9702 37.5322 18.7401 36.6237 19.7163 35.9847C20.6926 35.3457 21.8332 35.0036 23 35C23.8408 34.9991 24.6722 35.177 25.4391 35.5218C26.2059 35.8666 26.8907 36.3705 27.448 37H36.548C37.1058 36.3699 37.7912 35.8658 38.5588 35.5209C39.3264 35.1761 40.1585 34.9985 41 35C42.1668 35.0036 43.3074 35.3457 44.2837 35.9847C45.2599 36.6237 46.0298 37.5322 46.5 38.6C46.5662 38.7517 46.5937 38.9174 46.5801 39.0824C46.5665 39.2473 46.5121 39.4063 46.4219 39.545C46.3318 39.6838 46.2085 39.798 46.0633 39.8774C45.9181 39.9568 45.7555 39.9989 45.59 40H42.618L42.118 41L42.62 42Z" fill="black"/>
<path d="M41.105 38.553C41.1881 38.3868 41.3158 38.247 41.4739 38.1493C41.632 38.0516 41.8142 37.9999 42 38H43.644C42.9134 37.3566 41.9735 37.0012 41 37C40.382 37.0004 39.7728 37.1453 39.2208 37.4231C38.6688 37.7009 38.1894 38.1039 37.821 38.6C37.7278 38.7242 37.6071 38.825 37.4682 38.8944C37.3293 38.9639 37.1762 39 37.021 39H26.977C26.8217 39 26.6686 38.9639 26.5298 38.8944C26.3909 38.825 26.2701 38.7242 26.177 38.6C25.8087 38.1042 25.3297 37.7013 24.7781 37.4235C24.2265 37.1457 23.6176 37.0007 23 37C22.0265 37.0012 21.0866 37.3566 20.356 38H22C22.1858 37.9999 22.368 38.0516 22.5261 38.1493C22.6842 38.247 22.8119 38.3868 22.895 38.553L23.895 40.553C23.9643 40.6918 24.0005 40.8448 24.0005 41C24.0005 41.1552 23.9643 41.3082 23.895 41.447L22.895 43.447C22.8119 43.6132 22.6842 43.753 22.5261 43.8507C22.368 43.9484 22.1858 44.0001 22 44H20.356C21.0866 44.6434 22.0265 44.9988 23 45C23.6179 44.9996 24.2272 44.8547 24.7792 44.5769C25.3312 44.2991 25.8105 43.8961 26.179 43.4C26.2721 43.2758 26.3929 43.175 26.5318 43.1056C26.6706 43.0361 26.8237 43 26.979 43H37.023C37.1782 43 37.3313 43.0361 37.4702 43.1056C37.6091 43.175 37.7298 43.2758 37.823 43.4C38.1912 43.8958 38.6703 44.2987 39.2219 44.5765C39.7735 44.8543 40.3824 44.9993 41 45C41.9735 44.9988 42.9134 44.6434 43.644 44H42C41.8133 44.001 41.6301 43.9498 41.471 43.852C41.312 43.7543 41.1834 43.614 41.1 43.447L40.1 41.447C40.0306 41.3082 39.9945 41.1552 39.9945 41C39.9945 40.8448 40.0306 40.6918 40.1 40.553L41.105 38.553Z" fill="black"/>
<path d="M4.78 40.02C4.26543 41.4473 4.00154 42.9528 4 44.47V53H8.2L13.31 30.88C13.5527 29.8075 14.1453 28.8461 14.9943 28.1473C15.8434 27.4485 16.9008 27.0519 18 27.02V21H13.8C13.1851 21.0015 12.5854 21.1911 12.0814 21.5432C11.5773 21.8953 11.193 22.3932 10.98 22.97L4.78 40.02Z" fill="black"/>
<path d="M60 53V44.47C59.9985 42.9528 59.7346 41.4473 59.22 40.02L53.02 22.97C52.807 22.3932 52.4227 21.8953 51.9186 21.5432C51.4146 21.1911 50.8149 21.0015 50.2 21H46V27.02C47.0992 27.0519 48.1566 27.4485 49.0057 28.1473C49.8547 28.8461 50.4473 29.8075 50.69 30.88L55.8 53H60Z" fill="black"/>
<path d="M20 27H22V11.17C21.416 11.3787 20.9105 11.7624 20.5526 12.2688C20.1947 12.7753 20.0017 13.3798 20 14V27Z" fill="black"/>
<path d="M42 11.17V27H44V14C43.9983 13.3798 43.8053 12.7753 43.4474 12.2688C43.0895 11.7624 42.584 11.3787 42 11.17V11.17Z" fill="black"/>
<path d="M40 21H24V27H40V21Z" fill="black"/>
</svg>
