<?xml version="1.0" encoding="utf-8"?>
<!-- Generator: Adobe Illustrator 23.0.2, SVG Export Plug-In . SVG Version: 6.00 Build 0)  -->
<svg version="1.1" id="Layer_1" xmlns="http://www.w3.org/2000/svg" xmlns:xlink="http://www.w3.org/1999/xlink" x="0px" y="0px"
	 viewBox="0 0 295.079 366.6511" enable-background="new 0 0 295.079 366.6511" xml:space="preserve">
<g>
	<path d="M99.5392,125.5251l0.9286,1.8843l2.7807-1.3704l3.2128,0.4451c0.373,0.0518,0.7422,0.0767,1.1084,0.0767
		c3.8018,0,7.1259-2.7158,7.8422-6.5161l9.9488-4.9029l-0.8847-1.7944l20.256-9.9826l-1.7676-3.588l-20.2566,9.984l-0.8849-1.795
		l-9.1058,4.4875c-1.1174-0.9457-2.5022-1.6021-4.0594-1.8178l-9.6053-1.3309l-3.6731,15.644L99.5392,125.5251z"/>
	<path d="M159.1464,40.4717c2.2256,0,4.375,0.6675,6.2158,1.9302c3.0951,2.1245,4.7595,5.5621,4.7684,9.059H295.079V0H129.7751
		v51.4609h16.0309l4.2623-6.2118C152.121,42.2574,155.5145,40.4717,159.1464,40.4717z"/>
	<path d="M295.079,54.8408h-51.2666v17.543h51.2666V54.8408z M289.1023,68.3554h-9.6183v-9.6162h9.6183V68.3554z"/>
	<polygon points="132.8933,64.7822 132.8933,57.958 139.9783,57.958 139.9783,59.9541 143.4868,54.8408 129.7751,54.8408 
		129.7751,72.3838 131.4495,72.3838 136.6655,64.7822 	"/>
	<path d="M168.0287,57.958h4.5531v6.8242h-7.7481v-2.1677l-6.703,9.7693h82.1083v-17.543h-70.6335
		c-0.3184,0.9909-0.7783,1.9536-1.3967,2.8546L168.0287,57.958z M175.7,57.958h7.75v6.8242h-7.75V57.958z M216.0525,64.7822h-7.75
		V57.958h7.75V64.7822z M219.1707,57.958h7.748v6.8242h-7.748V57.958z M205.1843,64.7822h-7.748V57.958h7.748V64.7822z
		 M194.3162,64.7822h-7.7481V57.958h7.7481V64.7822z M237.1228,64.7822h-7.084V57.958h7.084V64.7822z"/>
	<polygon points="127.5876,223.4761 107.1623,223.4761 106.4557,228.4761 128.7414,228.4761 139.2691,274.1011 100.0079,274.1011 
		99.3013,279.1011 140.4229,279.1011 150.9506,324.7261 92.8535,324.7261 92.1469,329.7261 152.1043,329.7261 160.1966,364.7963 
		169.1962,364.7963 126.7997,181.0591 117.8002,181.0591 	"/>
	<polygon points="71.2994,204.6967 68.2698,220.4761 73.5294,220.4761 	"/>
	<polygon points="80.6838,271.1011 75.0839,231.4761 66.1942,231.4761 71.7941,271.1011 	"/>
	<polygon points="83.0833,288.0799 82.2384,282.1011 73.3486,282.1011 78.6385,319.5327 	"/>
	<polygon points="94.1872,366.6511 90.5579,340.97 86.9992,366.1515 	"/>
	<path d="M70.3036,178.0593h6.7473l0.7782-4.6949l-6.3455,4.027C71.1001,177.6348,70.7045,177.8529,70.3036,178.0593z"/>
	<path d="M80.2275,329.7261l-5.2183,36.925l8.9775-0.624l26.5645-187.9678h16.4782v-7.3333h-18.3526l-5.7656,34.7855
		c-0.7097,4.2797-3.1624,7.8572-6.5547,10.0862l-1.1134,7.8783H72.0835h-4.3896l-0.96,5h5.3497h22.4531l-6.4482,45.625h-8.0049
		H29.9272l2.2524-9.7615c-1.2759-2.7527-1.7457-5.9082-1.1317-9.1083l11.3516-59.1211l-1.8655-6.9789L0,364.7964h8.9995
		l8.0923-35.0703H80.2275z M28.7734,279.1011h51.3101h7.2983l-6.4478,45.625H18.2456L28.7734,279.1011z"/>
	<path d="M32.6867,148.1581l12.7891,47.8418l-11.4814,59.7969c-1.249,6.5088,3.0137,12.7979,9.5225,14.0479
		c0.7646,0.1465,1.5254,0.2168,2.2764,0.2168c5.6396,0,10.668-3.9951,11.7715-9.7393l12-62.5
		c0.3408-1.7793,0.2754-3.6123-0.1924-5.3613l-4.2375-15.8513c1.6379-0.2319,3.2538-0.8071,4.7414-1.7512l21.8184-13.8466
		l1.7036,2.4722l-12.1703,7.7236l-4.9542,29.89c-1.083,6.5381,3.3389,12.7168,9.877,13.8008
		c0.6641,0.1094,1.3242,0.1631,1.9766,0.1631c5.7637,0,10.8506-4.166,11.8242-10.04l10-60.333
		c0.0131-0.0789,0.0154-0.1569,0.0269-0.2357c0.0305-0.2092,0.0524-0.4189,0.0719-0.6296c0.0175-0.1882,0.0347-0.3759,0.0432-0.563
		c0.009-0.1989,0.0085-0.3978,0.0076-0.5974c-0.0009-0.1971-0.001-0.3939-0.0115-0.5893c-0.0102-0.1896-0.0306-0.3786-0.0499-0.5681
		c-0.0204-0.2006-0.0397-0.4011-0.0701-0.5992c-0.0284-0.186-0.0676-0.3705-0.1049-0.5557c-0.04-0.1974-0.0787-0.3947-0.1284-0.589
		c-0.0466-0.1828-0.1038-0.3635-0.1594-0.5448c-0.0594-0.1935-0.1181-0.3867-0.1871-0.5764
		c-0.063-0.1736-0.1357-0.3446-0.2073-0.5164c-0.0811-0.1946-0.163-0.3884-0.254-0.5781c-0.0767-0.1597-0.1611-0.3167-0.2455-0.4741
		c-0.1049-0.1957-0.212-0.3892-0.3275-0.5787c-0.0394-0.0646-0.0704-0.132-0.1111-0.1962
		c-0.0563-0.0887-0.1218-0.1676-0.1799-0.2543c-0.1192-0.1774-0.2414-0.3519-0.3699-0.5228
		c-0.117-0.156-0.2373-0.3075-0.3607-0.4562c-0.1221-0.1472-0.2476-0.2909-0.3767-0.4323c-0.14-0.1533-0.2823-0.3026-0.429-0.4473
		c-0.1285-0.1268-0.2605-0.2494-0.3948-0.3705c-0.1555-0.14-0.3124-0.2767-0.474-0.4076c-0.1433-0.1163-0.2904-0.2273-0.4393-0.3371
		c-0.1605-0.118-0.3218-0.2335-0.4872-0.3429c-0.1649-0.1093-0.3337-0.2124-0.5045-0.3137
		c-0.1594-0.0943-0.3192-0.1865-0.4822-0.273c-0.1844-0.0982-0.3726-0.1898-0.5631-0.2786c-0.1619-0.0753-0.3242-0.148-0.489-0.2159
		c-0.1938-0.08-0.3904-0.1539-0.5897-0.2241c-0.1755-0.0618-0.3516-0.1194-0.5296-0.173c-0.1918-0.0576-0.3851-0.111-0.5813-0.1594
		c-0.1971-0.0488-0.3951-0.091-0.5945-0.1297c-0.1093-0.0212-0.214-0.0524-0.3245-0.0707c-0.0795-0.0131-0.158-0.0154-0.2373-0.0269
		c-0.2115-0.0308-0.4237-0.0527-0.6368-0.0722c-0.1805-0.0164-0.3607-0.0333-0.5403-0.0415
		c-0.2164-0.0101-0.4327-0.0095-0.6498-0.0078c-0.175,0.0015-0.35,0.0012-0.5237,0.0103c-0.223,0.0115-0.4454,0.035-0.6682,0.059
		c-0.1631,0.0178-0.3265,0.0328-0.4881,0.0571c-0.2325,0.0348-0.4633,0.0826-0.6946,0.1314
		c-0.1475,0.0313-0.2956,0.0594-0.4413,0.0961c-0.2369,0.0594-0.4711,0.1322-0.7056,0.2067
		c-0.1365,0.0435-0.2739,0.0842-0.4084,0.1325c-0.2289,0.0819-0.4546,0.1762-0.6801,0.2729
		c-0.1369,0.0587-0.274,0.1158-0.4084,0.1794c-0.2123,0.1005-0.4209,0.2116-0.6292,0.3256
		c-0.1417,0.0776-0.2828,0.1552-0.4212,0.2383c-0.0853,0.0513-0.1739,0.0926-0.2584,0.1462l-1.3872,0.8804l0.9607-4.0916
		l0.6193-2.6378l7.5761-32.2668l36.3538-0.7585c2.5771-0.0537,4.9707-1.3462,6.4297-3.4722l23.5-34.25
		c2.5-3.6431,1.5723-8.6226-2.0703-11.1226c-3.6416-2.4985-8.6221-1.5737-11.123,2.0708l-21.1768,30.8633l-37.3175,0.7789
		l-8.3552-1.9617l-28.1229-6.6031c-0.1376-0.0323-0.2749-0.0505-0.4124-0.0751c-2.3257-0.8665-5.0176-0.6495-7.2393,0.8326
		l-8.5503,5.708c-1.7764,1.186-3.0049,3.0332-3.4116,5.1304c-0.4067,2.0967,0.042,4.2695,1.2461,6.0337l4.6797,6.856l-0.0768,0.3269
		l-7.0957,30.2209l-1.9843,8.4512l-1.8032,7.6796C32.1785,143.3617,32.0486,145.7717,32.6867,148.1581z"/>
	<path d="M99.2038,42.623c2.1656-0.6021,4.4353-1.3676,6.7504-2.3133c10.9922-4.4904,18.6907-11.1016,17.1943-14.7648
		c-1.4972-3.665-11.6227-2.995-22.615,1.4954c-0.3761,0.1536-0.7382,0.3154-1.1064,0.4738
		c-5.282-2.1838-11.3923-2.3705-17.1024-0.038c-11.503,4.699-17.0193,17.835-12.3203,29.3379
		c4.6998,11.5049,17.8348,17.0193,29.3378,12.3203c11.0541-4.5157,16.5724-16.8161,12.8194-27.9779
		C107.0652,42.5074,102.4623,43.0085,99.2038,42.623z"/>
	<rect x="144.804" y="97.9502" transform="matrix(0.897 -0.442 0.442 0.897 -29.0257 75.333)" width="4.666" height="3.9994"/>
</g>
</svg>
